<svg width="19" height="18" viewBox="0 0 19 18" fill="none" xmlns="http://www.w3.org/2000/svg">
<path d="M18.0581 6.33737L12.6991 5.55853L10.3035 0.70185C10.238 0.568877 10.1304 0.461233 9.99741 0.395802C9.66392 0.231169 9.25867 0.368363 9.09193 0.70185L6.6963 5.55853L1.33729 6.33737C1.18954 6.35847 1.05445 6.42813 0.951032 6.53366C0.825998 6.66217 0.757099 6.83507 0.759474 7.01435C0.761849 7.19363 0.835303 7.36464 0.963696 7.4898L4.84102 11.27L3.92498 16.6079C3.9035 16.7321 3.91724 16.8598 3.96464 16.9766C4.01205 17.0933 4.09122 17.1945 4.19318 17.2685C4.29514 17.3426 4.41581 17.3866 4.54151 17.3955C4.66721 17.4045 4.7929 17.3781 4.90434 17.3192L9.69769 14.7991L14.491 17.3192C14.6219 17.3889 14.7739 17.4121 14.9195 17.3868C15.2868 17.3235 15.5337 16.9752 15.4704 16.6079L14.5544 11.27L18.4317 7.4898C18.5372 7.38637 18.6069 7.25129 18.628 7.10354C18.685 6.73417 18.4275 6.39224 18.0581 6.33737Z" fill="#007AFF"/>
</svg>
